<svg xmlns="http://www.w3.org/2000/svg" xmlns:xlink="http://www.w3.org/1999/xlink" width="91.531" height="76.628" viewBox="0 0 91.531 76.628">
  <defs>
    <linearGradient id="linear-gradient" y1="0.5" x2="1" y2="0.561" gradientUnits="objectBoundingBox">
      <stop offset="0" stop-color="#e8505b"/>
      <stop offset="1" stop-color="#fff"/>
    </linearGradient>
  </defs>
  <path id="Icon_Shape" data-name="Icon Shape" d="M-111.221-162.984c7.623.929,12.958,9.409,16.675,18.366,3.74,8.956,5.86,18.437,2.025,25.179-3.835,6.765-13.649,10.815-20.962,14.221a189.893,189.893,0,0,0-17.865,9.457c-5.717,3.311-12.315,7.194-20.772,8.671-8.433,1.5-18.747.6-24.3-4.931-5.574-5.5-6.432-15.627-4.978-24.321,1.453-8.718,5.193-16.007,9-22.844,3.811-6.813,7.694-13.173,13.34-15.007,5.622-1.834,13.006.858,21.653-1.12S-118.82-163.913-111.221-162.984Z" transform="translate(182.022 163.073)" opacity="0.2" fill="url(#linear-gradient)"/>
</svg>
